<svg xmlns="http://www.w3.org/2000/svg" xmlns:xlink="http://www.w3.org/1999/xlink" viewBox="0 0 32 32">
  <defs>
    <linearGradient id="a" x1="-208.29" y1="-238.79" x2="-208.29" y2="-238.74" gradientTransform="matrix(220, 0, 0, -200, 45826, -47756)" gradientUnits="userSpaceOnUse">
      <stop offset="0" stop-color="#41d1ff"/>
      <stop offset="1" stop-color="#bd34fe"/>
    </linearGradient>
    <linearGradient id="b" x1="-208.29" y1="-238.79" x2="-208.29" y2="-238.74" gradientTransform="matrix(220, 0, 0, -200, 45826, -47756)" gradientUnits="userSpaceOnUse">
      <stop offset="0" stop-color="#ffea83"/>
      <stop offset="0.08" stop-color="#ffdd35"/>
      <stop offset="1" stop-color="#ffa800"/>
    </linearGradient>
  </defs>
  <path fill="url(#a)" d="M29.88 5.04a.42.42 0 0 0-.32-.36l-9.09-2.5a.42.42 0 0 0-.4.08L2.08 18.24a.42.42 0 0 0 .28.72l9.08 1.24a.42.42 0 0 1 .32.24l4.08 9.2a.42.42 0 0 0 .76 0l13.6-23.56a.42.42 0 0 0-.04-.44z"/>
  <path fill="url(#b)" d="M25.4.24a.42.42 0 0 0-.48.16L11.32 23.52a.42.42 0 0 0 .48.6l9-3.24a.42.42 0 0 1 .48.16l3.92 6.8a.42.42 0 0 0 .76-.08l5.28-27.6a.42.42 0 0 0-.44-.48z"/>
</svg>
